# The Great Editor v0.0.1
mtllib floor_1.mtl
o floor_1
v 5.815155395645824 -0.4147468187412481 0
v 5.815155395645824 -0.4147468187412481 -0.1
v 23.19422209189151 -1.8811355710068687 0
v 23.19422209189151 -1.8811355710068687 -0.1
v 22.080880631624918 -15.784378928080121 0
v 22.080880631624918 -15.784378928080121 -0.1
v 7.5530420654238 -14.426639342435928 0
v 7.5530420654238 -14.426639342435928 -0.1
v 8.775032692311816 -4.0806686997888155 0
v 8.775032692311816 -4.0806686997888155 -0.1
vt 5.815155395645824 -0.4147468187412481 0
vt 23.19422209189151 -1.8811355710068687 0
vt 22.080880631624918 -15.784378928080121 0
vt 7.5530420654238 -14.426639342435928 0
vt 8.775032692311816 -4.0806686997888155 0
vn 0 0 1
vn 0 0 -1
usemtl floor_1
s off
f 1/1/1 9/5/1 3/2/1
f 4/2/2 10/5/2 2/1/2
f 3/2/1 9/5/1 5/3/1
f 6/3/2 10/5/2 4/2/2
f 5/3/1 9/5/1 7/4/1
f 8/4/2 10/5/2 6/3/2
